<?xml version="1.0" encoding="UTF-8"?>
<svg version="1.1" xmlns="http://www.w3.org/2000/svg" width="150" height="150">
<path d="M0 0 C4.45542175 0.78241625 7.99938524 2.37616292 11.9453125 4.52734375 C12.59700409 4.87632217 13.24869568 5.2253006 13.9201355 5.58485413 C15.99174083 6.69635752 18.05827211 7.81695877 20.125 8.9375 C21.52183357 9.68741146 22.91896612 10.43676632 24.31640625 11.18554688 C25.65130934 11.90314813 26.98595379 12.62123075 28.3203125 13.33984375 C28.94535675 13.67636459 29.570401 14.01288544 30.21438599 14.35960388 C32.89506475 15.81384266 35.45978813 17.30652542 38 19 C38.39872742 21.10073853 38.39872742 21.10073853 38.43237305 23.72509766 C38.46206429 25.19639633 38.46206429 25.19639633 38.49235535 26.69741821 C38.49874527 27.75891083 38.50513519 28.82040344 38.51171875 29.9140625 C38.52966995 30.99883881 38.54762115 32.08361511 38.56611633 33.20126343 C38.6204231 36.67580239 38.65418068 40.15020242 38.6875 43.625 C38.72065504 45.97658192 38.75514298 48.32814546 38.79101562 50.6796875 C38.87616106 56.45300041 38.94442432 62.22633087 39 68 C39.97737877 67.46203041 39.97737877 67.46203041 40.97450256 66.91319275 C61.64410448 55.53986533 61.64410448 55.53986533 71.98632812 50.5 C74.64561098 49.20067613 77.12320108 47.91441757 79.55859375 46.22265625 C82.84329758 44.57767657 84.45358761 45.15964978 88 46 C90.92504883 47.31933594 90.92504883 47.31933594 93.95703125 48.984375 C95.07013672 49.59023437 96.18324219 50.19609375 97.33007812 50.8203125 C99.05387695 51.77550781 99.05387695 51.77550781 100.8125 52.75 C101.95009766 53.37132812 103.08769531 53.99265625 104.25976562 54.6328125 C110.52283343 58.05888768 116.76420905 61.52454538 123 65 C121.76410431 68.70768707 120.9337027 68.85014357 117.5390625 70.56640625 C116.60344482 71.04609863 115.66782715 71.52579102 114.70385742 72.02001953 C113.68783447 72.52903809 112.67181152 73.03805664 111.625 73.5625 C109.48810661 74.65460627 107.35138987 75.74705825 105.21484375 76.83984375 C104.15120605 77.3797998 103.08756836 77.91975586 101.99169922 78.47607422 C98.03785758 80.49010062 94.11015056 82.55105843 90.1875 84.625 C89.4665918 85.00495117 88.74568359 85.38490234 88.00292969 85.77636719 C85.33458164 87.18291256 82.66725102 88.59137532 80 90 C79.36978943 90.33271912 78.73957886 90.66543823 78.090271 91.00823975 C73.61831457 93.36928059 69.14712743 95.73177128 64.67666626 98.09564209 C63.1588995 98.89806359 61.64097894 99.70019425 60.12289429 100.50201416 C57.96424588 101.64233424 55.80630322 102.78398094 53.6484375 103.92578125 C52.96640259 104.28557068 52.28436768 104.64536011 51.58166504 105.01605225 C47.97078355 106.92750582 44.41588907 108.90501671 40.88671875 110.96484375 C35.75698613 113.81354224 30.82604572 114.96017155 24.95605469 113.76025391 C18.55208301 111.27124145 13.59519558 105.12038934 9.04125977 100.17163086 C7.12808497 98.0489989 7.12808497 98.0489989 5.29734612 96.57829285 C1.87116725 93.57781498 -0.41069541 91.36253302 -0.84178162 86.70350647 C-0.86185306 85.08632153 -0.84394666 83.46836551 -0.79467773 81.85180664 C-0.79569992 80.96320953 -0.79672211 80.07461243 -0.79777527 79.15908813 C-0.79292425 76.24153148 -0.73860363 73.3271614 -0.68359375 70.41015625 C-0.67052865 68.3799358 -0.66056878 66.3496932 -0.65357971 64.31944275 C-0.62692609 58.99073741 -0.55822628 53.66337996 -0.48065186 48.33520508 C-0.40888477 42.89227531 -0.37703942 37.44912649 -0.34179688 32.00585938 C-0.26685326 21.33664923 -0.14747142 10.66843695 0 0 Z " fill="#4977C4" transform="translate(14,37)"/>
<path d="M0 0 C4.38376765 1.93701361 8.27550785 4.34185917 12.28955078 6.94042969 C14.90797117 8.56246002 17.6602204 9.86054048 20.4375 11.1875 C26.74629348 14.28556823 32.83671908 17.69937392 38.9375 21.1875 C46.93543397 25.75954209 55.00066248 30.15040128 63.1875 34.375 C84.23884122 45.23884122 84.23884122 45.23884122 87 48 C87.08874135 51.10251201 87.11518455 54.1826812 87.09765625 57.28515625 C87.0962413 58.21597519 87.09482635 59.14679413 87.09336853 60.1058197 C87.08775172 63.09141191 87.0751964 66.07693029 87.0625 69.0625 C87.05748716 71.08137913 87.05292388 73.10025943 87.04882812 75.11914062 C87.03777683 80.07945572 87.02050095 85.03971532 87 90 C83.26165554 89.32423274 80.75919618 88.44703531 77.5625 86.375 C73.7308394 83.99421673 69.87235163 81.90368418 65.8125 79.9375 C59.41169297 76.82042166 53.24128694 73.34641237 47.0625 69.8125 C39.29008801 65.37084857 31.45966077 61.09657389 23.5 57 C14.71628406 52.47693578 6.10055682 47.7141534 -2.47387695 42.80712891 C-10.00268675 38.5158824 -17.63552256 34.45653548 -25.35205078 30.51342773 C-26.16786621 30.09391846 -26.98368164 29.67440918 -27.82421875 29.2421875 C-28.53666748 28.8797998 -29.24911621 28.51741211 -29.9831543 28.14404297 C-32.13721943 26.92216315 -34.05086729 25.52417088 -36 24 C-35.42235562 20.86915901 -34.59969956 19.22256994 -32.34765625 16.984375 C-31.81849609 16.45585937 -31.28933594 15.92734375 -30.74414062 15.3828125 C-30.18919922 14.84398437 -29.63425781 14.30515625 -29.0625 13.75 C-28.51142578 13.19570312 -27.96035156 12.64140625 -27.39257812 12.0703125 C-23.26712592 8 -23.26712592 8 -21 8 C-21 7.34 -21 6.68 -21 6 C-15.9211298 -1.37008984 -8.18216813 -1.56135221 0 0 Z " fill="#6361B7" transform="translate(50,0)"/>
<path d="M0 0 C4.59912167 0.91982433 7.91268269 2.32889574 11.9453125 4.52734375 C12.59700409 4.87632217 13.24869568 5.2253006 13.9201355 5.58485413 C15.99174083 6.69635752 18.05827211 7.81695877 20.125 8.9375 C21.52183357 9.68741146 22.91896612 10.43676632 24.31640625 11.18554688 C25.65130934 11.90314813 26.98595379 12.62123075 28.3203125 13.33984375 C28.94535675 13.67636459 29.570401 14.01288544 30.21438599 14.35960388 C32.89506475 15.81384266 35.45978813 17.30652542 38 19 C38.42132568 21.1362915 38.42132568 21.1362915 38.48339844 23.81347656 C38.52663239 25.31578827 38.52663239 25.31578827 38.57073975 26.84844971 C38.58348938 27.93486755 38.59623901 29.0212854 38.609375 30.140625 C38.62647522 31.25556335 38.64357544 32.37050171 38.66119385 33.51922607 C38.68957363 35.8830102 38.7091577 38.24691355 38.72070312 40.61083984 C38.74978383 44.22314853 38.84276964 47.83030451 38.9375 51.44140625 C38.95709468 53.73694871 38.97284432 56.03252787 38.984375 58.328125 C39.03993561 59.94560638 39.03993561 59.94560638 39.09661865 61.59576416 C39.03163467 68.91569404 39.03163467 68.91569404 36.1658783 71.92776489 C33.84533433 73.51020713 31.52731787 74.77887931 29 76 C27.85539307 76.64888184 26.71078613 77.29776367 25.53149414 77.96630859 C24.46020264 78.52141113 23.38891113 79.07651367 22.28515625 79.6484375 C21.41243324 80.10181992 21.41243324 80.10181992 20.52207947 80.56436157 C19.31445807 81.19015018 18.10551649 81.81339779 16.89526367 82.43408203 C15.03772275 83.38772033 13.18569433 84.3515026 11.33398438 85.31640625 C2.26139392 90 2.26139392 90 0 90 C0 60.3 0 30.6 0 0 Z " fill="#576BBD" transform="translate(14,37)"/>
</svg>
